<?xml version="1.0" standalone="no"?>
<!DOCTYPE svg PUBLIC "-//W3C//DTD SVG 20010904//EN"
 "http://www.w3.org/TR/2001/REC-SVG-20010904/DTD/svg10.dtd">
<svg version="1.0" xmlns="http://www.w3.org/2000/svg"
 width="512.000000pt" height="512.000000pt" viewBox="0 0 512.000000 512.000000"
 preserveAspectRatio="xMidYMid meet">

<g transform="translate(0.000000,512.000000) scale(0.100000,-0.100000)"
fill="#000000" stroke="none">
<path d="M560 5110 c-259 -35 -464 -215 -537 -471 -17 -61 -18 -161 -18 -2079
0 -1918 1 -2018 18 -2079 64 -225 233 -394 458 -458 61 -17 161 -18 2079 -18
1918 0 2018 1 2079 18 225 64 394 233 458 458 17 61 18 161 18 2079 0 1918 -1
2018 -18 2079 -63 223 -228 389 -453 457 -56 17 -164 19 -2044 20 -1092 1
-2010 -2 -2040 -6z m1477 -652 c77 -29 152 -104 181 -181 l22 -58 0 -1499 0
-1499 -22 -58 c-29 -77 -104 -152 -181 -181 -57 -22 -69 -22 -597 -22 -528 0
-540 0 -597 22 -77 29 -152 104 -181 181 l-22 58 0 1499 0 1499 22 58 c28 76
104 152 178 181 53 20 71 21 597 21 531 1 543 1 600 -21z m2240 0 c77 -29 152
-104 181 -181 22 -57 22 -62 22 -917 0 -855 0 -860 -22 -917 -29 -77 -104
-152 -181 -181 -57 -22 -69 -22 -597 -22 -528 0 -540 0 -597 22 -77 29 -152
104 -181 181 -22 57 -22 62 -22 917 0 855 0 860 22 917 28 76 104 152 178 181
53 20 71 21 597 21 531 1 543 1 600 -21z"/>
</g>
</svg>
